<svg width="23" height="23" viewBox="0 0 23 23" fill="none" xmlns="http://www.w3.org/2000/svg">
<g clip-path="url(#clip0_98_11)">
<path d="M10.3429 0.10822C8.32591 0.298561 6.29849 1.10133 4.58523 2.38245C3.94728 2.85579 2.85127 3.9518 2.38295 4.5795C0.587283 6.9876 -0.210256 9.87928 0.129221 12.771C0.288809 14.1345 0.607784 15.2203 1.20976 16.4499C2.62475 19.3416 5.08932 21.4565 8.14059 22.4031C9.24685 22.7478 10.2605 22.8972 11.5108 22.8972C12.8074 22.8972 13.8675 22.7223 15.1126 22.3055C19.3319 20.8957 22.3934 17.0674 22.8512 12.6218C22.9284 11.8757 22.8872 10.3578 22.7688 9.67346C22.1616 6.0562 19.8822 2.94845 16.6201 1.29167C14.6853 0.303786 12.5295 -0.102822 10.3427 0.10822H10.3429ZM12.8898 3.04111C16.327 3.61233 19.1158 6.27247 19.8567 9.68392C20.4689 12.5241 19.6046 15.4416 17.5207 17.5204C15.3391 19.7072 12.2364 20.546 9.24685 19.7587C8.08391 19.4552 6.77706 18.7451 5.82515 17.9011C2.11523 14.6133 1.92489 8.95833 5.40829 5.45945C6.90569 3.95703 8.84025 3.07708 11.0116 2.9177C11.4284 2.88674 12.3134 2.94342 12.8896 3.04111H12.8898Z" fill="white"/>
<path d="M10.5848 5.83994C9.35513 6.04576 8.35177 6.57055 7.46158 7.46075C6.76172 8.15538 6.36556 8.78308 6.07232 9.66302C5.36221 11.7881 5.9282 14.0521 7.56971 15.6215C8.25912 16.2801 9.12881 16.7637 10.0705 17.0159C10.5233 17.1393 10.6674 17.1548 11.4752 17.1548C12.2932 17.1548 12.4219 17.1446 12.8902 17.0159C13.5076 16.8461 14.4133 16.414 14.8712 16.064C15.6327 15.4878 16.1833 14.8239 16.6001 13.9699C17.3772 12.3903 17.3772 10.5277 16.6104 8.97884C16.2245 8.20703 15.5503 7.39924 14.8764 6.90018C13.657 5.9945 12.0412 5.59835 10.5852 5.84014L10.5848 5.83994ZM12.1954 8.72137C12.6739 8.85001 13.1215 9.10728 13.4817 9.46746C14.0425 10.0282 14.3205 10.6921 14.3205 11.4742C14.3257 13.2081 12.7973 14.5459 11.0788 14.3041C9.98283 14.155 9.00018 13.2803 8.7222 12.2203C8.62955 11.8446 8.62452 11.1242 8.71698 10.7795C8.97947 9.78141 9.76154 8.99412 10.7546 8.71615C11.0736 8.62871 11.8557 8.62871 12.1954 8.72137Z" fill="white"/>
</g>
<defs>
<clipPath id="clip0_98_11">
<rect width="23" height="23" fill="white"/>
</clipPath>
</defs>
</svg>
